<svg width="100" height="100" viewBox="0 0 100 100" fill="none" xmlns="http://www.w3.org/2000/svg">
  <rect width="100" height="100" rx="50" fill="#2D6A4F"/>
  <path d="M50 20C60.6087 20 70.7828 24.2143 78.2843 32.1508C85.7858 40.0873 90 51.1677 90 62.7586C90 65.1724 89.75 67.5172 89.25 69.8276C85 59.6552 75.75 52.2759 64.25 51.3448C65.5 50 67 48.6552 68.5 47.069C60.25 45.6552 52.75 40.6897 48.25 33.7931C45.5 45.1724 36.5 54.4828 25 57.7586C23.75 57.7586 22.5 57.7586 21.25 57.7586C22 55.8621 23 53.7931 24.25 52.0689C22.75 52.069 21.25 52.069 19.75 52.3448C22 44.4828 27 37.5862 34 33.3448C30.5 31.0345 26.75 29.3103 22.75 28.6207C28.5 24.4828 35.5 22.069 43 21.7241C45.25 20.6897 47.75 20 50 20Z" fill="white"/>
  <path d="M25 72.4138C30.25 82.5862 39.5 90 50 90C60.5 90 69.75 82.5862 75 72.4138C70.75 73.7931 66.25 74.4828 61.5 74.4828C49.25 74.4828 37.75 70 28.75 62.069C27.25 65.5172 25.75 69.1379 25 72.4138Z" fill="#52B788"/>
</svg>